<svg xmlns="http://www.w3.org/2000/svg" viewBox="0 0 512 512"><path d="M458.7 288c29.4 0 53.3-23.9 53.3-53.3V64c0-29.4-23.9-53.3-53.3-53.3h-64c-12 0-23.1 4.1-32 10.8V288h96zM0 208c0 12.8 5.1 24.8 13.9 33.6-10 10.9-15 25.5-13.7 40.7 2.5 27.1 26.9 48.4 55.6 48.4h131.8c-6.5 19.8-17 56.1-17 85.3 0 46.3 39.3 85.3 64 85.3 22.2 0 38-12.5 38.7-13 2.5-2 4-5.1 4-8.3v-72.3l61.4-133.1 2.6-1.3V44.6C324 36.4 302 32 288 32H92.2C69 32 48.6 47.7 43.9 69.3c-2.5 11.1-1 22.3 3.9 32-15.8 7.9-26.4 24.2-26.4 42.7 0 7.6 1.7 14.8 5 21.3C10.6 173.3 0 189.5 0 208z" fill="#858a8d"/></svg>