<svg fill="#fff" xmlns="http://www.w3.org/2000/svg" viewBox="0 0 512 512"><path d="M448.678 128.219l-10.607 10.608c-8.667 8.667-20.191 13.44-32.449 13.44s-23.78-4.773-32.448-13.44c-8.667-8.667-13.44-20.191-13.44-32.448s4.773-23.781 13.44-32.449l10.608-10.608L320.459 0 0 320.459l63.322 63.322 10.608-10.608c8.667-8.667 20.191-13.44 32.449-13.44s23.78 4.773 32.448 13.44c8.667 8.667 13.44 20.191 13.44 32.448s-4.773 23.781-13.44 32.449l-10.608 10.608L191.541 512 512 191.541l-63.322-63.322zM169.61 447.636c8.237-12.343 12.662-26.839 12.662-42.015 0-20.272-7.894-39.33-22.229-53.664-14.334-14.335-33.393-22.229-53.664-22.229-15.176 0-29.672 4.425-42.015 12.662l-21.932-21.931L320.459 42.432l21.931 21.932c-8.237 12.343-12.662 26.839-12.662 42.015 0 20.272 7.894 39.33 22.229 53.664 14.334 14.335 33.393 22.229 53.664 22.229 15.176 0 29.672-4.425 42.015-12.662l21.932 21.931-278.027 278.027-21.931-21.932z"/><path d="M277.741 212.96l21.216-21.216 21.3 21.3-21.215 21.217zm-42.596-42.615l21.216-21.215 21.3 21.3-21.215 21.216zm85.201 85.216l21.216-21.216 21.3 21.301-21.215 21.216z"/></svg>