<svg fill="#fff" height="512pt" viewBox="-35 0 512 512.001" width="512pt" xmlns="http://www.w3.org/2000/svg"><path d="M443.055 495.172L404.14 124.598c-.817-7.758-7.356-13.649-15.157-13.649h-73.14V94.273C315.844 42.293 273.55 0 221.57 0c-51.984 0-94.277 42.293-94.277 94.273v16.676h-73.14c-7.801 0-14.34 5.89-15.157 13.649L.082 495.172a15.263 15.263 0 003.832 11.789A15.25 15.25 0 0015.238 512h412.657c4.32 0 8.437-1.832 11.324-5.04a15.236 15.236 0 003.836-11.788zM157.77 94.273c0-35.175 28.62-63.796 63.8-63.796 35.176 0 63.797 28.62 63.797 63.796v16.676H157.77zM32.16 481.523l35.715-340.097h59.418v33.582c0 8.414 6.824 15.238 15.238 15.238s15.239-6.824 15.239-15.238v-33.582h127.597v33.582c0 8.414 6.824 15.238 15.238 15.238 8.415 0 15.239-6.824 15.239-15.238v-33.582h59.418l35.715 340.097zm0 0"/></svg>