<svg fill="#222" height="512" width="512" xmlns="http://www.w3.org/2000/svg"><path d="M479.511 153.703h-6.99V14.963C472.522 6.699 465.822 0 457.559 0H54.441c-8.264 0-14.963 6.699-14.963 14.963v105.303h-6.99c-17.568 0-31.861 13.61-31.861 30.34v331.053c0 16.729 14.293 30.34 31.861 30.34l447.023.001c17.568 0 31.861-13.61 31.861-30.339V184.042c.001-16.729-14.292-30.339-31.861-30.339zM69.405 29.926h373.191v123.776l-179.175-.001-8.709-23.644a14.962 14.962 0 00-14.041-9.791H69.405zM32.489 150.193h197.748l8.709 23.644a14.962 14.962 0 0014.041 9.791l204.571.001h21.955c1.093 0 1.718.439 1.935.661v29.779l-450.892-.001v-63.215c.214-.221.84-.66 1.933-.66zm448.957 331.219c-.216.222-.842.661-1.935.661l-447.023-.001c-1.094 0-1.718-.439-1.935-.661V243.995l450.892.001v237.416z"/></svg>