<?xml version="1.0" encoding="utf-8"?>
<!-- Generator: Adobe Illustrator 16.0.0, SVG Export Plug-In . SVG Version: 6.00 Build 0)  -->
<!DOCTYPE svg PUBLIC "-//W3C//DTD SVG 1.1//EN" "http://www.w3.org/Graphics/SVG/1.1/DTD/svg11.dtd">
<svg version="1.1" id="Layer_1" xmlns="http://www.w3.org/2000/svg" xmlns:xlink="http://www.w3.org/1999/xlink" x="0px" y="0px"
	 width="368px" height="368px" viewBox="0 0 368 368" enable-background="new 0 0 368 368" xml:space="preserve">
<path fill="#00313B" d="M360,176h-24.406c-1.883-35.871-16.188-68.426-38.777-93.504l20.84-20.84c3.13-3.129,3.13-8.184,0-11.313
	c-3.129-3.13-8.184-3.13-11.313,0l-20.84,20.84C260.426,48.594,227.871,34.289,192,32.406V8c0-4.426-3.586-8-8-8s-8,3.574-8,8
	v24.406c-35.871,1.883-68.426,16.188-93.504,38.777l-20.84-20.84c-3.129-3.13-8.184-3.13-11.313,0
	c-3.129,3.129-3.129,8.184,0,11.313l20.84,20.84C48.594,107.574,34.281,140.129,32.398,176H8c-4.414,0-8,3.574-8,8s3.586,8,8,8
	h24.406c1.883,35.871,16.188,68.426,38.777,93.504l-20.84,20.841c-3.129,3.129-3.129,8.184,0,11.313
	C51.902,319.216,53.953,320,56,320s4.098-0.784,5.656-2.344l20.84-20.84c25.078,22.59,57.633,36.896,93.504,38.777V360
	c0,4.427,3.586,8,8,8s8-3.573,8-8v-24.405c35.871-1.883,68.426-16.188,93.504-38.777l20.848,20.84
	C307.91,319.216,309.961,320,312,320s4.098-0.784,5.656-2.344c3.129-3.129,3.129-8.184,0-11.313l-20.848-20.841
	c22.59-25.078,36.895-57.633,38.785-93.504H360c4.414,0,8-3.574,8-8S364.414,176,360,176z M184,320c-74.992,0-136-61.008-136-136
	S109.008,48,184,48s136,61.008,136,136S258.992,320,184,320z"/>
<path fill="#00313B" d="M257.535,110.465c-0.078-0.082-0.184-0.104-0.27-0.176C238.457,91.586,212.559,80,184,80
	c-28.559,0-54.457,11.586-73.273,30.281c-0.078,0.07-0.191,0.094-0.27,0.176c-0.082,0.078-0.105,0.185-0.176,0.271
	C91.586,129.543,80,155.441,80,184c0,28.56,11.586,54.457,30.281,73.273c0.07,0.078,0.094,0.19,0.176,0.27
	c0.078,0.082,0.184,0.105,0.27,0.177C129.543,276.414,155.441,288,184,288c28.559,0,54.457-11.586,73.273-30.28
	c0.078-0.07,0.19-0.095,0.27-0.177c0.082-0.078,0.105-0.184,0.176-0.27C276.414,238.457,288,212.558,288,184
	c0-28.558-11.586-54.457-30.281-73.272C257.641,110.648,257.617,110.543,257.535,110.465z M251.586,240.273l-34.25-34.25
	c2.785-4.191,4.816-8.926,5.855-14.023h48.401C269.938,210.265,262.711,226.929,251.586,240.273z M96.406,192h48.402
	c1.039,5.099,3.07,9.824,5.855,14.023l-34.25,34.25C105.289,226.929,98.063,210.265,96.406,192z M116.414,127.726l34.25,34.25
	c-2.785,4.19-4.816,8.926-5.855,14.022H96.406C98.063,157.734,105.289,141.07,116.414,127.726z M184,208c-13.23,0-24-10.77-24-24
	c0-13.229,10.77-24,24-24c13.23,0,24,10.771,24,24C208,197.23,197.23,208,184,208z M206.023,150.664
	c-4.199-2.785-8.926-4.815-14.023-5.854V96.406c18.266,1.656,34.93,8.891,48.273,20.02L206.023,150.664z M176,144.808
	c-5.098,1.039-9.832,3.069-14.023,5.854l-34.25-34.25c13.336-11.125,30.008-18.352,48.273-20.008V144.808z M161.977,217.336
	c4.199,2.785,8.926,4.816,14.023,5.855v48.401c-18.266-1.655-34.93-8.891-48.273-20.02L161.977,217.336z M192,223.191
	c5.098-1.039,9.832-3.07,14.023-5.855l34.25,34.25c-13.336,11.125-30.008,18.353-48.273,20.009V223.191z M223.191,176
	c-1.039-5.098-3.07-9.824-5.855-14.022l34.25-34.25c11.125,13.336,18.352,30.008,20.008,48.272H223.191z"/>
</svg>
