<?xml version="1.0" encoding="utf-8"?>
<!-- Generator: Adobe Illustrator 16.0.0, SVG Export Plug-In . SVG Version: 6.00 Build 0)  -->
<!DOCTYPE svg PUBLIC "-//W3C//DTD SVG 1.1//EN" "http://www.w3.org/Graphics/SVG/1.1/DTD/svg11.dtd">
<svg version="1.1" id="Capa_1" xmlns="http://www.w3.org/2000/svg" xmlns:xlink="http://www.w3.org/1999/xlink" x="0px" y="0px"
	 width="841.889px" height="595.281px" viewBox="0 0 841.889 595.281" enable-background="new 0 0 841.889 595.281"
	 xml:space="preserve">
<g>
	<g>
		<g>
			<path fill="#00313B" d="M708.633,376.987c-27.09-0.636-53.771,6.69-76.737,21.072c-4.354,2.399-8.65,4.771-13.165,6.944
				l95.091-114.329c5.038-5.89,6.186-14.174,2.938-21.212c-3.248-7.037-10.296-11.538-18.047-11.525h-86.063l-104.556-76.043
				l-5.061-10.109c-10.025-20.214-30.672-32.971-53.234-32.896H347.693l-9.921-19.844h53.396c5.479,0,9.921-4.44,9.921-9.92
				c0-5.479-4.441-9.921-9.921-9.921h-109.13c-5.479,0-9.921,4.441-9.921,9.921c0,5.48,4.44,9.92,9.921,9.92h33.553l9.92,19.844
				h-43.473c-16.438,0-29.764,13.323-29.764,29.762c0,16.438,13.325,29.763,29.764,29.763h13.71l-29.763,59.525h-8.75
				c-6.241,0.013-12.116,2.95-15.873,7.937l-23.81,31.747h-17.064c-3.38-0.001-6.527,1.719-8.354,4.563l-48.255,75.181
				c-3.423-0.198-6.875-0.377-10.655-0.377c-5.479,0-9.92,4.441-9.92,9.921s4.44,9.92,9.92,9.92
				c23.723-0.569,47.083,5.906,67.125,18.612c22.961,14.385,49.642,21.711,76.729,21.072c21.229,0.614,42.298-3.866,61.439-13.065
				l0.14-0.069c5.287-2.55,10.229-5.259,15.108-7.938c20.029-12.7,43.375-19.177,67.084-18.612
				c23.731-0.572,47.103,5.903,67.154,18.612c22.977,14.388,49.674,21.715,76.775,21.072c27.09,0.636,53.771-6.691,76.737-21.072
				c20.04-12.7,43.395-19.176,67.114-18.612c5.479,0,9.92-4.44,9.92-9.92C718.552,381.429,714.113,376.987,708.633,376.987z
				 M497.071,198.412l27.283,19.842H411.008c-5.479,0-9.92-4.439-9.92-9.92v-9.921L497.071,198.412L497.071,198.412z
				 M282.037,178.571c-5.479,0-9.921-4.441-9.921-9.92c0-5.479,4.44-9.921,9.921-9.921h167.761
				c14.154-0.024,27.233,7.551,34.258,19.842L282.037,178.571L282.037,178.571z M317.931,198.412h63.315v9.921
				c0,16.438,13.323,29.763,29.762,29.763h140.628l27.282,19.843H288.169L317.931,198.412z M257.236,277.779h203.376v9.92
				c0,5.479-4.44,9.921-9.92,9.921H242.355L257.236,277.779z M564.781,416.672c-23.746,0.582-47.131-5.896-67.192-18.611
				c-22.967-14.382-49.647-21.707-76.737-21.072c-27.074-0.635-53.739,6.691-76.688,21.072
				c-20.027,12.702-43.374,19.18-67.084,18.611c-23.727,0.571-47.09-5.904-67.135-18.611c-13.709-8.281-28.657-14.312-44.275-17.857
				l40.238-62.739h244.785c16.438,0,29.762-13.324,29.762-29.764v-9.92h29.764v29.764c0,5.479,4.441,9.92,9.921,9.92
				c5.478,0,9.92-4.44,9.92-9.92V277.78h19.842v29.764c0,5.479,4.441,9.92,9.921,9.92c5.48,0,9.92-4.44,9.92-9.92V277.78h19.844
				v29.764c0,5.479,4.439,9.92,9.92,9.92c5.479,0,9.921-4.44,9.921-9.92V277.84h89.197L584.303,415.4
				C577.83,416.256,571.31,416.679,564.781,416.672z"/>
			<path fill="#00313B" d="M708.633,436.511c-27.09-0.637-53.771,6.69-76.737,21.071c-20.041,12.7-43.396,19.177-67.114,18.612
				c-23.731,0.573-47.103-5.902-67.153-18.612c-22.979-14.388-49.675-21.715-76.776-21.071
				c-27.074-0.635-53.739,6.691-76.688,21.071c-20.028,12.703-43.374,19.182-67.084,18.612c-23.728,0.572-47.09-5.905-67.136-18.612
				c-22.958-14.383-49.633-21.71-76.717-21.071c-5.479,0-9.921,4.44-9.921,9.921c0,5.479,4.441,9.92,9.921,9.92
				c23.724-0.57,47.082,5.906,67.124,18.612c22.962,14.385,49.642,21.712,76.729,21.071c27.074,0.638,53.741-6.692,76.688-21.081
				c20.03-12.696,43.375-19.171,67.083-18.602c23.732-0.573,47.103,5.903,67.154,18.611c22.978,14.389,49.674,21.715,76.775,21.071
				c27.09,0.637,53.771-6.689,76.737-21.071c20.041-12.7,43.395-19.177,67.114-18.611c5.479,0,9.921-4.441,9.921-9.921
				C718.554,440.952,714.113,436.511,708.633,436.511z"/>
		</g>
	</g>
</g>
</svg>
