<?xml version="1.0" encoding="utf-8"?>
<!-- Generator: Adobe Illustrator 16.0.0, SVG Export Plug-In . SVG Version: 6.00 Build 0)  -->
<!DOCTYPE svg PUBLIC "-//W3C//DTD SVG 1.1//EN" "http://www.w3.org/Graphics/SVG/1.1/DTD/svg11.dtd">
<svg version="1.1" id="Capa_1" xmlns="http://www.w3.org/2000/svg" xmlns:xlink="http://www.w3.org/1999/xlink" x="0px" y="0px"
	 width="841.889px" height="595.281px" viewBox="0 0 841.889 595.281" enable-background="new 0 0 841.889 595.281"
	 xml:space="preserve">
<path fill="#FFFFFF" d="M717.475,453.355c-1.633-3.05-4.813-4.955-8.273-4.955H477.243v-77.319h199.93
	c3.481,0,6.679-1.929,8.302-5.011c1.624-3.081,1.406-6.808-0.563-9.68L477.243,53.574V41.412c0-5.184-4.2-9.384-9.383-9.384
	s-9.384,4.2-9.384,9.384v63.304L327.764,341.143c-1.606,2.906-1.558,6.445,0.131,9.307c1.688,2.86,4.76,4.615,8.082,4.615h100.714
	c5.183,0,9.384-4.2,9.384-9.383c0-5.185-4.201-9.384-9.384-9.384h-84.804l106.591-192.798v304.896h-19.142v-4.629
	c0-32.769-26.66-59.428-59.428-59.428h-77.694V172.947c0-0.012,0-0.021,0-0.033v-5.64c0-5.185-4.201-9.384-9.384-9.384
	s-9.384,4.199-9.384,9.384v2.747L156.952,356.429c-1.951,2.875-2.153,6.592-0.527,9.662c1.627,3.069,4.817,4.988,8.292,4.988h96.085
	c5.183,0,9.384-4.199,9.384-9.384c0-5.183-4.201-9.383-9.384-9.383h-78.377L283.447,203.44v180.901h-22.646
	c-5.182,0-9.383,4.199-9.383,9.384v22.645h-54.674c-5.184,0-9.385,4.2-9.385,9.385V448.4h-54.674c-3.017,0-5.849,1.449-7.61,3.896
	c-1.766,2.446-2.243,5.594-1.29,8.455l32.027,96.086c1.277,3.832,4.863,6.414,8.902,6.414h480.428c3.138,0,6.067-1.566,7.807-4.179
	l64.058-96.085C718.928,460.107,719.107,456.406,717.475,453.355z M659.361,352.314H477.243V107.241c0-0.021,0-0.042,0-0.062V86.756
	L659.361,352.314z M640.122,544.485H171.48l-25.771-77.317h246.586c5.182,0,9.383-4.2,9.383-9.385c0-5.184-4.201-9.383-9.383-9.383
	H206.128v-13.263h54.674c5.183,0,9.384-4.199,9.384-9.383v-22.646h109.724c11.874,0,22.573,5.118,30.015,13.264H300.838
	c-5.184,0-9.384,4.199-9.384,9.384c0,5.184,4.2,9.384,9.384,9.384h118.8c0.604,2.783,0.932,5.67,0.932,8.631v14.013
	c0,5.185,4.201,9.385,9.383,9.385c0.527,0,1.04-0.055,1.543-0.139c0.503,0.084,1.017,0.139,1.542,0.139h258.632L640.122,544.485z"/>
</svg>
