<?xml version="1.0" encoding="utf-8"?>
<!-- Generator: Adobe Illustrator 16.0.0, SVG Export Plug-In . SVG Version: 6.00 Build 0)  -->
<!DOCTYPE svg PUBLIC "-//W3C//DTD SVG 1.1//EN" "http://www.w3.org/Graphics/SVG/1.1/DTD/svg11.dtd">
<svg version="1.1" id="Layer_1" xmlns="http://www.w3.org/2000/svg" xmlns:xlink="http://www.w3.org/1999/xlink" x="0px" y="0px"
	 width="841.889px" height="595.281px" viewBox="0 0 841.889 595.281" enable-background="new 0 0 841.889 595.281"
	 xml:space="preserve">
<g>
	<g>
		<g>
			<path fill="#FFFFFF" d="M689.781,326.444V201.628c0-15.881-12.923-28.805-28.804-28.805h-19.202
				c-7.403,0-14.095,2.891-19.203,7.489c-5.106-4.608-11.8-7.489-19.202-7.489h-19.203c-7.401,0-14.095,2.891-19.201,7.489
				c-5.108-4.608-11.801-7.489-19.203-7.489H526.56c-15.881,0-28.804,12.924-28.804,28.805v123.203
				c-22.15-15.352-54.479-28.42-101.813-33.95l15.122-105.862c0.183-1.277,0.278-2.573,0.278-3.87
				c0-15.181-12.348-27.526-27.526-27.526h-87.688V67.209c0-5.29,4.311-9.601,9.602-9.601h76.811
				c15.881,0,28.804-12.924,28.804-28.805C411.343,12.924,398.42,0,382.539,0h-86.411c-31.771,0-57.608,25.837-57.608,57.608v96.013
				h-87.688c-15.181,0-27.526,12.348-27.526,27.526c0,1.297,0.096,2.593,0.278,3.897L146.723,347
				c-22.822,27.182-23.417,53.988-23.417,56.255c0,16.744,10.83,30.857,25.799,36.109c-4.158,6.136-6.597,13.538-6.597,21.497
				c0,10.235,4.081,19.481,10.629,26.375c-17.763,9.822-29.831,28.736-29.831,50.437c0,31.771,25.837,57.607,57.607,57.607h288.038
				h19.202h230.431V393.653v-9.601v-28.806C718.584,339.368,705.66,326.444,689.781,326.444z M632.173,201.628
				c0-5.291,4.311-9.602,9.602-9.602h19.202c5.29,0,9.602,4.311,9.602,9.602v124.816h-38.404L632.173,201.628L632.173,201.628z
				 M574.566,201.628c0-5.291,4.312-9.602,9.601-9.602h19.203c5.29,0,9.603,4.311,9.603,9.602v124.816h-38.405L574.566,201.628
				L574.566,201.628z M516.956,201.628c0-5.291,4.313-9.602,9.603-9.602h19.202c5.291,0,9.602,4.311,9.602,9.602v124.816h-38.405
				L516.956,201.628L516.956,201.628z M363.337,19.203h19.202c5.291,0,9.602,4.312,9.602,9.602c0,5.291-4.311,9.602-9.602,9.602
				h-19.202V19.203z M324.932,19.203h19.202v19.202h-19.202V19.203z M257.723,57.608c0-21.181,17.225-38.405,38.405-38.405h9.602
				v19.202c-15.881,0-28.805,12.924-28.805,28.804v86.412h-19.202V57.608z M143.976,192.026l-1.382-9.669
				c-0.058-0.403-0.087-0.808-0.087-1.21c0-4.589,3.735-8.324,8.324-8.324h87.688h57.608h87.688c4.59,0,8.324,3.735,8.324,8.324
				c0,0.402-0.028,0.807-0.077,1.182l-1.392,9.697h-27.335v19.202h24.589l-5.482,38.404H152.204l-5.482-38.404h197.412v-19.202
				H143.976z M379.707,268.837l-2.899,20.316c-10.283-0.711-21.113-1.114-32.674-1.114h-19.202
				c-83.666,0-132.536,19.481-161.177,42.43l-8.805-61.632H379.707z M142.507,403.256c0-0.96,2.084-96.014,182.425-96.014h19.202
				c179.093,0,182.377,92.153,182.425,96.014c0,10.59-8.612,19.201-19.203,19.201h-9.601h-9.603h-307.24H161.71
				C151.119,422.457,142.507,413.844,142.507,403.256z M180.912,480.065c-10.591,0-19.202-8.612-19.202-19.203
				c0-10.59,8.611-19.202,19.202-19.202h307.24c10.591,0,19.202,8.612,19.202,19.202c0,10.591-8.611,19.203-19.202,19.203H180.912z
				 M448.076,499.267l-39.394,45.962l-105.065-45.962H448.076z M488.154,576.078h-19.202H180.912
				c-21.182,0-38.405-17.225-38.405-38.404c0-21.181,17.225-38.405,38.405-38.405h74.804l158.287,69.254l59.363-69.254h14.786
				c21.182,0,38.405,17.225,38.405,38.405C526.558,558.853,509.334,576.078,488.154,576.078z M515.94,487.237
				c6.539-6.894,10.619-16.14,10.619-26.375c0-7.026-2.035-13.528-5.338-19.202h139.756v96.014H545.761
				c0-6.74-1.229-13.184-3.36-19.202h60.969v-19.203h-72.394C526.674,494.476,521.615,490.378,515.94,487.237z M699.382,384.052
				H680.18v19.202h19.202v172.822H530.976c4.981-5.55,8.891-12.04,11.425-19.202H680.18V422.457H540.423
				c3.303-5.674,5.338-12.174,5.338-19.201h115.216v-19.202H542.506c-3.12-10.677-9.284-24.532-21.306-38.405H689.78
				c5.291,0,9.603,4.301,9.603,9.602V384.052L699.382,384.052z"/>
			<rect x="622.572" y="499.267" fill="#FFFFFF" width="19.203" height="19.203"/>
			<rect x="248.121" y="326.444" fill="#FFFFFF" width="19.203" height="19.203"/>
			<rect x="286.527" y="345.647" fill="#FFFFFF" width="19.203" height="19.202"/>
			<rect x="324.932" y="326.444" fill="#FFFFFF" width="19.202" height="19.203"/>
			<rect x="382.539" y="355.248" fill="#FFFFFF" width="19.202" height="19.203"/>
			<rect x="430.546" y="326.444" fill="#FFFFFF" width="19.201" height="19.203"/>
			<rect x="190.514" y="364.849" fill="#FFFFFF" width="19.202" height="19.203"/>
		</g>
	</g>
</g>
</svg>
