<?xml version="1.0" encoding="utf-8"?>
<!-- Generator: Adobe Illustrator 16.0.0, SVG Export Plug-In . SVG Version: 6.00 Build 0)  -->
<!DOCTYPE svg PUBLIC "-//W3C//DTD SVG 1.1//EN" "http://www.w3.org/Graphics/SVG/1.1/DTD/svg11.dtd">
<svg version="1.1" id="Capa_1" xmlns="http://www.w3.org/2000/svg" xmlns:xlink="http://www.w3.org/1999/xlink" x="0px" y="0px"
	 width="841.889px" height="595.281px" viewBox="0 0 841.889 595.281" enable-background="new 0 0 841.889 595.281"
	 xml:space="preserve">
<g>
	<path fill="#FFFFFF" d="M684.131,576.55h-63.658v-19.192c0-43.949-11.721-77.87-34.835-100.819
		c-28.973-28.765-65.222-29.314-67.84-29.314c-0.045,0-0.08,0-0.104,0h-46.92v-28.392c0-0.493-0.05-0.978-0.125-1.451
		c30.043-12.414,49.031-33.121,60.593-51.073c18.024-27.985,22.089-54.919,22.253-56.053c0.064-0.444,0.099-0.895,0.099-1.344
		v-2.006c6.578-1.622,12.302-5.017,16.847-10.048c13.26-14.684,12.49-37.847,11.542-47.123c-0.719-7.063-3.913-12.988-9.237-17.137
		c-0.302-0.235-0.609-0.461-0.921-0.682c10.682-34.923,6.735-65.298,4.529-76.786c15.688-12.814,18.169-26.337,18.317-27.243
		c0.082-0.503,0.125-1.011,0.125-1.52c0-26.563-18.857-53.614-51.733-74.212C509.963,11.42,467.608,0,423.795,0
		c-0.65,0-1.286,0.067-1.899,0.193C421.282,0.067,420.648,0,419.995,0c-43.812,0-86.167,11.42-119.265,32.155
		c-32.877,20.598-51.733,47.647-51.733,74.212c0,0.51,0.041,1.017,0.125,1.521c0.143,0.87,2.43,13.373,16.502,25.711
		c-2.096,10.076-6.981,41.688,4.222,78.317c-0.31,0.221-0.618,0.443-0.92,0.681c-5.325,4.148-8.521,10.073-9.239,17.138
		c-0.946,9.277-1.716,32.44,11.544,47.123c4.597,5.088,10.398,8.497,17.069,10.097v1.957c0,0.449,0.032,0.898,0.098,1.344
		c0.163,1.134,4.229,28.066,22.253,56.053c11.563,17.952,30.551,38.659,60.594,51.073c-0.075,0.475-0.125,0.958-0.125,1.451v28.392
		h-46.854c-1.56,0.016-38.55,0.063-68.012,29.314c-23.114,22.949-34.835,56.871-34.835,100.819v19.192h-63.66
		c-5.174,0-9.366,4.192-9.366,9.365s4.192,9.366,9.366,9.366h526.373c5.174,0,9.365-4.193,9.365-9.366
		S689.305,576.55,684.131,576.55z M537.473,449.323c9.853,2.931,21.989,8.409,33.022,18.652L549.996,483.5
		c-3.873-3.339-8.045-6.347-12.523-8.998V449.323z M582.679,482.246c5.921,8.752,10.47,18.927,13.635,30.473H572.24
		c-2.724-5.572-5.867-10.717-9.405-15.44L582.679,482.246z M517.761,445.955c0.027-0.001,0.377,0,0.979,0.024v34.055
		c0,3.523,1.979,6.748,5.115,8.348c15.268,7.775,26.606,20.33,33.703,37.314c1.457,3.485,4.864,5.755,8.643,5.755h33.87
		c1.099,8.113,1.669,16.74,1.669,25.906v19.192H453.265c-0.025-0.669-0.121-1.346-0.298-2.021l-17.98-68.2l12.885,4.202
		c0.954,0.312,1.935,0.462,2.902,0.462c2.672,0,5.271-1.146,7.081-3.233l9.766-11.277l16.974-10.373
		c3.281-2.007,5.004-5.813,4.344-9.603l-5.334-30.551L517.761,445.955L517.761,445.955L517.761,445.955z M376.229,458.451
		c6.813,13.82,19.846,24.039,35.421,26.988l-16.419,5.355l-6.646-7.677c-0.631-0.729-1.373-1.355-2.195-1.858l-12.777-7.812
		L376.229,458.451z M466.463,456.704l2.923,16.744l-12.776,7.812c-0.823,0.503-1.563,1.13-2.195,1.858l-6.646,7.676l-16.818-5.483
		C446.853,482.052,460.009,471.187,466.463,456.704z M434.127,576.55H408.95l12.588-47.744L434.127,576.55z M556.535,264.301
		c-0.899,0.996-1.885,1.818-2.943,2.51v-41.96c2.883,0.336,5.784,1.078,7.637,2.521c0.903,0.704,1.863,1.764,2.117,4.265
		C564.46,242.548,563.256,256.86,556.535,264.301z M554.024,206.064c-0.145-0.014-0.289-0.023-0.432-0.034v-17.936
		c0-0.565-0.06-1.116-0.155-1.654c-0.161-2.749-1.521-5.401-3.942-7.112l-21.538-15.207v-8.979c0.396-0.022,0.798-0.063,1.201-0.137
		c12.015-2.242,21.841-5.472,29.878-9.198C560.613,158.488,561.57,181.061,554.024,206.064z M420.945,142.327
		c51.745,0,78.08,5.937,88.278,9.022v8.313c-90.773,30.358-163.747,5.148-176.558,0.179v-8.484
		C342.93,148.249,369.265,142.327,420.945,142.327z M419.994,18.732c0.65,0,1.286-0.067,1.899-0.193
		c0.613,0.126,1.249,0.193,1.899,0.193c85.05,0,151.176,46.342,152.25,86.64c-1.034,3.491-8.75,23.456-50.329,31.222
		c-0.619,0.115-1.212,0.29-1.774,0.518c-0.367-0.256-0.754-0.488-1.161-0.692c-2.621-1.313-27.749-12.822-101.838-12.822
		c-74.088,0-99.216,11.511-101.837,12.822c-0.179,0.088-0.339,0.202-0.508,0.302c-0.177-0.045-0.348-0.094-0.527-0.126
		c-41.353-7.724-49.164-27.339-50.329-31.272C268.876,65.035,334.981,18.732,419.994,18.732z M282.754,144.849
		c8.239,4.057,18.477,7.591,31.181,10.021v9.253l-21.539,15.207c-2.422,1.71-3.781,4.363-3.941,7.111
		c-0.097,0.538-0.154,1.089-0.154,1.655v17.918c-0.216,0.015-0.438,0.031-0.654,0.051
		C279.906,180.421,281.11,157.328,282.754,144.849z M285.13,264.302c-6.72-7.44-7.923-21.754-6.812-32.669
		c0.256-2.487,1.204-3.543,2.101-4.245c1.894-1.489,4.901-2.24,7.878-2.562v42.121C287.15,266.233,286.093,265.367,285.13,264.302z
		 M326.772,336.741c-14.654-22.492-19.065-44.761-19.742-48.597v-96.218l20.031-14.142c11.252,4.332,44.914,15.549,91.819,15.549
		c27.872,0,60.431-3.99,95.702-15.721l20.275,14.313v96.229c-0.661,3.822-4.916,25.565-19.368,48.007
		c-20.984,32.584-52.498,50.495-93.677,53.237h-1.742C379.155,386.675,347.763,368.957,326.772,336.741z M419.159,408.115
		c0.202,0.014,0.403,0.021,0.605,0.021h2.355c0.202,0,0.403-0.006,0.605-0.021c10.614-0.688,20.354-2.288,29.313-4.581v32.724
		c-0.003,0.081-0.013,0.16-0.013,0.24c0,17.144-13.946,31.092-31.089,31.092c-17.145,0-31.091-13.948-31.091-31.092v-32.965
		C398.808,405.827,408.546,407.427,419.159,408.115z M259.354,482.135l19.996,15.144c-3.538,4.727-6.684,9.868-9.406,15.44h-24.325
		C249.024,500.385,253.807,490.331,259.354,482.135z M292.184,483.499l-20.659-15.646c11.126-10.365,23.32-15.827,33.185-18.702
		V474.5C300.229,477.153,296.057,480.159,292.184,483.499z M240.151,557.357c0-9.414,0.602-18.015,1.682-25.906h34.149
		c3.777,0,7.187-2.27,8.643-5.755c7.099-16.984,18.438-29.539,33.703-37.314c3.139-1.6,5.114-4.823,5.114-8.348V445.97
		c0.357-0.011,0.622-0.016,0.756-0.016h35.196l-5.332,30.552c-0.661,3.788,1.063,7.595,4.342,9.602l16.974,10.374l9.767,11.277
		c1.811,2.089,4.408,3.233,7.08,3.233c0.97,0,1.95-0.15,2.902-0.462l12.977-4.23l-17.989,68.229
		c-0.179,0.675-0.271,1.352-0.298,2.02H240.151V557.357z"/>
	<circle fill="#FFFFFF" cx="354.461" cy="223.544" r="11.18"/>
	<circle fill="#FFFFFF" cx="487.427" cy="223.544" r="11.178"/>
	<path fill="#FFFFFF" d="M418.53,289.391h4.831c12.396,0,22.479-10.084,22.479-22.479v-32.739c0-5.172-4.192-9.365-9.366-9.365
		s-9.366,4.193-9.366,9.365v32.739c0,2.065-1.681,3.746-3.747,3.746h-4.831c-2.064,0-3.747-1.681-3.747-3.746
		c0-5.173-4.19-9.366-9.366-9.366c-5.174,0-9.364,4.193-9.364,9.366C396.051,279.307,406.135,289.391,418.53,289.391z"/>
	<path fill="#FFFFFF" d="M421.895,103.362c18.365,0,33.308-14.941,33.308-33.309c0-5.173-4.191-9.366-9.365-9.366
		c-5.175,0-9.366,4.193-9.366,9.366c0,4.473-2.028,8.478-5.209,11.152V60.13c5.146-0.029,9.312-4.211,9.312-9.364
		c0-5.174-4.192-9.366-9.366-9.366h-3.617c0.691-1.063,1.098-2.33,1.098-3.693c0-3.748-3.042-6.788-6.791-6.788
		c-3.748,0-6.791,3.04-6.791,6.788c0,1.363,0.406,2.63,1.098,3.693h-3.617c-5.175,0-9.365,4.192-9.365,9.366
		c0,5.153,4.163,9.334,9.311,9.363v21.076c-3.181-2.677-5.209-6.682-5.209-11.152c0-5.174-4.191-9.366-9.366-9.366
		c-5.172,0-9.364,4.192-9.364,9.366C388.588,88.419,403.53,103.362,421.895,103.362z"/>
	<path fill="#FFFFFF" d="M479.007,326.864c3.248-4.026,2.615-9.923-1.411-13.17c-4.027-3.248-9.924-2.616-13.17,1.41
		c-0.101,0.125-11.352,12.412-41.176,12.412c-30.98,0-46.084-12.857-46.822-13.503c-3.824-3.435-9.708-3.146-13.178,0.659
		c-3.485,3.822-3.212,9.747,0.61,13.23c0.82,0.75,20.563,18.344,59.39,18.344C462.245,346.248,477.406,328.848,479.007,326.864z"/>
</g>
</svg>
