<?xml version="1.0" encoding="utf-8"?>
<!-- Generator: Adobe Illustrator 16.0.0, SVG Export Plug-In . SVG Version: 6.00 Build 0)  -->
<!DOCTYPE svg PUBLIC "-//W3C//DTD SVG 1.1//EN" "http://www.w3.org/Graphics/SVG/1.1/DTD/svg11.dtd">
<svg version="1.1" id="Layer_1" xmlns="http://www.w3.org/2000/svg" xmlns:xlink="http://www.w3.org/1999/xlink" x="0px" y="0px"
	 width="200px" height="200px" viewBox="320.94458 197.64038 200 200" enable-background="new 320.94458 197.64038 200 200"
	 xml:space="preserve">
<title>UI Essential</title>
<g>
	<path fill="#FFFFFF" d="M420.94458,198.64038c-54.67578,0-99,44.32422-99,99s44.32422,99,99,99s99-44.32422,99-99
		S475.62036,198.64038,420.94458,198.64038z M420.94458,389.81226c-50.90576,0-92.17236-41.2666-92.17236-92.17188
		s41.2666-92.17285,92.17236-92.17285c50.90527,0,92.17188,41.26758,92.17188,92.17285S471.84985,389.81226,420.94458,389.81226
		L420.94458,389.81226z"/>
	<path fill="#FFFFFF" d="M478.97876,294.22632h-54.62012v-54.62061c0-1.88477-1.5293-3.41406-3.41406-3.41406
		c-1.88525,0-3.41406,1.5293-3.41406,3.41406v54.62061h-54.62061c-1.88477,0-3.41357,1.52881-3.41357,3.41406
		c0,1.88477,1.52881,3.41406,3.41357,3.41406h54.62061v54.62109c0,1.88477,1.52881,3.41309,3.41406,3.41309
		c1.88477,0,3.41406-1.52832,3.41406-3.41309v-54.62109h54.62012c1.88574,0,3.41406-1.5293,3.41406-3.41406
		C482.39282,295.75513,480.8645,294.22632,478.97876,294.22632z"/>
</g>
</svg>
