<?xml version="1.0" encoding="utf-8"?>
<!-- Generator: Adobe Illustrator 16.0.0, SVG Export Plug-In . SVG Version: 6.00 Build 0)  -->
<!DOCTYPE svg PUBLIC "-//W3C//DTD SVG 1.1//EN" "http://www.w3.org/Graphics/SVG/1.1/DTD/svg11.dtd">
<svg version="1.1" id="Layer_1" xmlns="http://www.w3.org/2000/svg" xmlns:xlink="http://www.w3.org/1999/xlink" x="0px" y="0px"
	 width="612px" height="612px" viewBox="0 90 612 612" enable-background="new 0 90 612 612" xml:space="preserve">
<g>
	<ellipse fill="#00C1C8" cx="305.99951" cy="396" rx="176.96631" ry="176.95898"/>
	<g>
		<g>
			<path fill="#FFFFFF" d="M306,96C140.56641,96,5.99121,230.58496,5.99121,396c0,165.41992,134.5752,300,300.00879,300
				c165.4375,0,300.00879-134.58008,300.00879-300C606.00879,230.58496,471.4375,96,306,96z M425.2627,406.50977
				L250.26074,519.00879c-2.05078,1.33203-4.41992,1.99316-6.76367,1.99316c-2.05078,0-4.12695-0.51172-5.97949-1.52832
				c-4.02734-2.19727-6.52051-6.39746-6.52051-10.97363v-225c0-4.57617,2.49316-8.77734,6.52051-10.97656
				c3.9541-2.1709,8.90918-2.03809,12.74316,0.46582L425.2627,385.49023c3.56543,2.29297,5.74219,6.25879,5.74219,10.50977
				S428.82813,404.21484,425.2627,406.50977z"/>
		</g>
	</g>
</g>
</svg>
