<?xml version="1.0" encoding="utf-8"?>
<!-- Generator: Adobe Illustrator 16.0.0, SVG Export Plug-In . SVG Version: 6.00 Build 0)  -->
<!DOCTYPE svg PUBLIC "-//W3C//DTD SVG 1.1//EN" "http://www.w3.org/Graphics/SVG/1.1/DTD/svg11.dtd">
<svg version="1.1" id="Layer_1" xmlns="http://www.w3.org/2000/svg" xmlns:xlink="http://www.w3.org/1999/xlink" x="0px" y="0px"
	 width="479px" height="479px" viewBox="0 0 479 479" enable-background="new 0 0 479 479" xml:space="preserve">
<g>
	<path fill="#00313B" d="M239.5,0C138.137,0.113,55.995,82.255,55.883,183.617c0,113.764,170.706,285.805,177.973,293.046
		c3.118,3.115,8.17,3.115,11.289,0c7.262-7.241,177.973-179.282,177.973-293.046C423,82.255,340.859,0.113,239.5,0z M239.5,459.57
		C209.656,428.474,71.85,279.663,71.85,183.617c0-92.592,75.059-167.649,167.65-167.649c92.588,0,167.649,75.059,167.649,167.649
		C407.151,279.663,269.34,428.474,239.5,459.57z"/>
	<path fill="#00313B" d="M382.834,173.357c-5.57-77.818-72.217-136.977-150.148-133.28c-77.927,3.699-138.672,68.903-136.848,146.9
		c1.82,77.994,65.547,140.29,143.563,140.341c3.428,0,6.893-0.129,10.382-0.374C328.884,321.176,388.397,252.477,382.834,173.357z
		 M248.625,311.032c-40.279,2.843-79.521-13.563-105.795-44.221c10.396-3.104,21.283-4.241,32.102-3.36
		c10.025,1.021,19.782,3.859,28.795,8.365c9.441,4.916,19.885,7.608,30.526,7.882c1.901,0,3.891-0.089,5.964-0.28
		c12.221-1.216,23.845-5.867,33.532-13.413c6.743-5.285,14.629-8.927,23.028-10.635c14.588-2.007,29.433,0.766,42.314,7.897
		C316.94,291.135,284.129,308.46,248.625,311.032z M348.417,250.038c-16.475-9.461-35.648-13.113-54.449-10.377
		c-10.606,2.085-20.594,6.584-29.185,13.148c-7.462,5.982-16.497,9.679-26.014,10.642c-9.925,0.725-19.849-1.462-28.554-6.292
		c-10.614-5.242-22.087-8.521-33.866-9.675c-14.825-1.122-29.72,0.896-43.71,5.933c-24.804-37.861-27.692-86.03-7.594-126.587
		s60.176-67.43,105.327-70.627c3.092-0.214,6.158-0.319,9.204-0.319c46.177-0.043,88.771,24.887,111.35,65.165
		C373.51,161.328,372.547,210.667,348.417,250.038z"/>
	<path fill="#00313B" d="M159.666,191.6H287.4v15.967H159.666V191.6z"/>
	<path fill="#00313B" d="M343.283,167.65h-50.131l-14.146-42.438c-1.083-3.263-4.136-5.461-7.573-5.461h-63.867v-15.967
		c0-4.409-3.573-7.983-7.982-7.983h-23.95c-4.409,0-7.983,3.574-7.983,7.983v15.967h-7.982c-4.408,0-7.983,3.574-7.983,7.983v39.916
		h-15.967c-4.408,0-7.983,3.575-7.983,7.982v47.9c0,4.409,3.575,7.983,7.983,7.983H311.35c2.667,0,5.161-1.333,6.644-3.552
		l31.934-47.899c1.634-2.452,1.785-5.603,0.397-8.198C348.932,169.272,346.227,167.65,343.283,167.65z M183.616,111.767h7.982v7.982
		h-7.982V111.767z M215.55,135.719v7.982h-47.9v-7.982H215.55z M167.65,159.668h55.885c4.407,0,7.982-3.574,7.982-7.982v-15.967
		h34.159l10.649,31.933H167.65V159.668z M307.078,215.551H143.699v-31.934h184.661L307.078,215.551z"/>
</g>
</svg>
