<?xml version="1.0" encoding="utf-8"?>
<!-- Generator: Adobe Illustrator 16.0.0, SVG Export Plug-In . SVG Version: 6.00 Build 0)  -->
<!DOCTYPE svg PUBLIC "-//W3C//DTD SVG 1.1//EN" "http://www.w3.org/Graphics/SVG/1.1/DTD/svg11.dtd">
<svg version="1.1" id="Layer_5" xmlns="http://www.w3.org/2000/svg" xmlns:xlink="http://www.w3.org/1999/xlink" x="0px" y="0px"
	 width="512px" height="512px" viewBox="0 0 512 512" enable-background="new 0 0 512 512" xml:space="preserve">
<circle fill="#00313B" cx="304" cy="208" r="8"/>
<circle fill="#00313B" cx="208" cy="208" r="8"/>
<path fill="#00313B" d="M288,256h-16c0,8.824-7.176,16-16,16s-16-7.176-16-16h-16c0,17.648,14.352,32,32,32
	C273.648,288,288,273.648,288,256z"/>
<path fill="#00313B" d="M422.28,395.177C428.144,390.802,432,383.864,432,376v-16c0-13.23-10.77-24-24-24H300.24
	c-2.712-3.968-4.238-8.622-4.238-13.486v-5.744c24.616-17.008,43.416-41.008,54.07-68.77H352c22.056,0,40-17.942,40-40v-57.472
	c9.286-3.313,16-12.112,16-22.528c0-13.23-10.77-24-24-24l9.848-13.136C397.816,85.568,400,79.016,400,72.408
	c0-13.264-8.456-24.992-21.04-29.192l-89.248-29.742c-21.784-7.258-45.642-7.258-67.424,0L133.04,43.216
	C120.456,47.416,112,59.152,112,72.408c0,6.608,2.184,13.16,6.16,18.464L128,104c-13.232,0-24,10.77-24,24
	c0,10.416,6.712,19.216,16,22.528V208c0,22.058,17.942,40,40,40h1.928c10.656,27.77,29.456,51.761,54.072,68.77v5.744
	c0,4.864-1.528,9.52-4.24,13.486H104c-13.232,0-24,10.77-24,24v16c0,7.864,3.854,14.792,9.72,19.178
	C58.688,419.024,40,456.192,40,496v8h431.998v-8C471.998,456.192,453.312,419.016,422.28,395.177L422.28,395.177z M128,384v-32h16
	v32H128z M160,352h16v32h-16V352z M216.952,392.962c4.534-4.546,7.022-10.584,7.016-16.984l0.008-4.688l20.176,20.178l-31.968,26.64
	l-5.728-19.096C210.376,397.904,214,395.922,216.952,392.962z M247.064,440h17.88l6,48h-29.88L247.064,440z M267.056,424h-22.112
	l-4.366-8.728L256,402.416l15.424,12.856L267.056,424z M267.848,391.466L288,371.312V376c0,10.984,7.456,20.169,17.544,23.01
	l-5.729,19.096L267.848,391.466z M336,384v-32h16v32H336z M368,352h16v32h-16V352z M416,360v16c0,4.416-3.586,8-8,8h-8v-32h8
	C412.414,352,416,355.586,416,360z M304,352h16v32h-8c-4.416,0-8-3.584-8-8V352z M149.504,152h212.992
	c-27.018,20.664-59.792,32-94.376,32h-24.232C209.296,184,176.52,172.664,149.504,152z M147.288,170.264
	c-4.104,1.392-7.896,3.376-11.288,5.942v-14.318C139.656,164.84,143.432,167.632,147.288,170.264z M376,161.88v14.32
	c-3.394-2.568-7.186-4.552-11.288-5.936C368.568,167.632,372.344,164.84,376,161.88z M355.312,231.664
	c3.032-11.854,4.688-24.2,4.688-36.854v-9.336c9.288,3.312,16,12.11,16,22.526C376,220.096,366.968,230.032,355.312,231.664z
	 M130.952,81.272c-1.904-2.544-2.952-5.688-2.952-8.864c0-6.368,4.063-12,10.104-14.008l89.248-29.752
	c18.496-6.168,38.8-6.168,57.296,0L373.896,58.4C379.936,60.416,384,66.04,384,72.408c0,3.168-1.048,6.32-2.952,8.856L364,104H256
	H148L130.952,81.272z M128,120h256c4.416,0,8,3.592,8,8s-3.584,8-8,8H128c-4.416,0-8-3.592-8-8S123.584,120,128,120L128,120z
	 M136,208c0-10.416,6.712-19.216,16-22.526v9.336c0,12.654,1.655,25,4.688,36.854C145.032,230.032,136,220.096,136,208z
	 M168,194.808V182.24c23.328,11.512,49.104,17.76,75.88,17.76h24.23c26.784,0,52.554-6.248,75.882-17.76v12.568
	c0,56.184-35.248,105.976-88,124.728C203.248,300.784,168,250.992,168,194.808L168,194.808z M253.472,335.585l2.528,0.849
	l2.526-0.84c7.602-2.536,14.89-5.642,21.824-9.256c0.696,7.23,3.32,14.063,7.648,19.902v2.456l-32,32l-32.008-32.008v-2.448
	c4.336-5.84,6.95-12.664,7.646-19.902C238.584,329.952,245.872,333.056,253.472,335.585L253.472,335.585z M207.968,375.984
	c0,2.146-0.832,4.16-2.336,5.672c-1.512,1.513-3.521,2.344-5.664,2.344H192v-32h15.992L207.968,375.984z M96,360
	c0-4.415,3.584-8,8-8h8v32h-8c-4.416,0-8-3.584-8-8V360z M111.312,400h78.736l13.776,45.896l24.128-20.104l3.814,7.623L224.936,488
	H136v-48h-16v48H56.288C58.92,451.52,79.496,418.506,111.312,400L111.312,400z M392,488v-48h-16v48h-88.938l-6.824-54.584
	l3.816-7.623l24.128,20.104L321.952,400h78.734c31.816,18.496,52.392,51.521,55.024,88H392z"/>
<path fill="#00313B" d="M292.224,96c15.24,0,28.952-8.472,35.776-22.11L340.944,48h-64c-5.632-4.92-12.902-8-20.942-8
	s-15.313,3.08-20.944,8h-64L184,73.888C190.824,87.528,204.528,96,219.776,96h15.288c5.624,4.92,12.896,8,20.944,8
	s15.312-3.08,20.944-8H292.224z M313.688,66.736C309.592,74.92,301.376,80,292.224,80h-5.36c0.674-2.576,1.138-5.224,1.138-8
	c0-2.774-0.464-5.424-1.138-8h28.192L313.688,66.736z M198.312,66.736L196.944,64h28.192c-0.672,2.576-1.136,5.226-1.136,8
	c0,2.776,0.464,5.424,1.136,8h-5.36C210.624,80,202.408,74.92,198.312,66.736z M256,88c-8.824,0-16-7.176-16-16
	c0-8.822,7.176-16,16-16c8.822,0,16,7.178,16,16C272,80.824,264.824,88,256,88z"/>
<path fill="#00313B" d="M152,456h32v16h-32V456z"/>
<path fill="#00313B" d="M312,456h32v16h-32V456z"/>
</svg>
