<?xml version="1.0" encoding="utf-8"?>
<!-- Generator: Adobe Illustrator 16.0.0, SVG Export Plug-In . SVG Version: 6.00 Build 0)  -->
<!DOCTYPE svg PUBLIC "-//W3C//DTD SVG 1.1//EN" "http://www.w3.org/Graphics/SVG/1.1/DTD/svg11.dtd">
<svg version="1.1" id="Layer_1" xmlns="http://www.w3.org/2000/svg" xmlns:xlink="http://www.w3.org/1999/xlink" x="0px" y="0px"
	 width="841.889px" height="595.281px" viewBox="0 0 841.889 595.281" enable-background="new 0 0 841.889 595.281"
	 xml:space="preserve">
<g>
	<path fill="#FFFFFF" d="M684.867,297.641c0-3.96,5.51-10.896,10.969-17.771c8.901-11.209,17.726-22.313,15.301-35.666
		c-2.467-13.584-14.91-20.818-27.282-28.013c-7.298-4.246-14.56-8.47-15.705-11.535c-1.145-3.076,1.694-11.083,4.523-19.062
		c4.715-13.304,9.412-26.561,2.603-38.183c-6.825-11.649-20.777-13.997-34.707-16.345c-8.206-1.38-16.409-2.761-18.421-5.15
		c-2.012-2.385-1.971-10.709-1.935-19.034c0.063-14.102,0.127-28.202-10.109-36.842c-10.292-8.678-24.152-6.254-38.032-3.824
		c-8.265,1.444-16.545,2.894-19.237,1.317c-2.688-1.577-5.5-9.452-8.324-17.354c-4.77-13.354-9.557-26.75-22.336-31.511
		c-12.641-4.705-24.984,2.149-37.396,9.047c-7.503,4.17-15.05,8.362-18.565,7.722c-3.434-0.622-9.042-7.03-14.701-13.498
		C441.954,11.022,432.308,0,418.328,0c-13.974,0-23.619,11.022-33.181,21.94c-5.653,6.463-11.263,12.871-14.7,13.493
		c-3.515,0.64-11.059-3.552-18.566-7.722c-12.412-6.894-24.752-13.752-37.391-9.047c-12.78,4.76-17.572,18.162-22.342,31.51
		c-2.819,7.904-5.636,15.783-8.323,17.354c-2.688,1.577-10.969,0.128-19.238-1.316c-13.88-2.43-27.74-4.851-38.032,3.828
		c-10.236,8.629-10.172,22.735-10.109,36.837c0.041,8.325,0.077,16.65-1.935,19.039c-2.012,2.383-10.21,3.764-18.421,5.15
		c-13.93,2.343-27.881,4.691-34.707,16.345c-6.808,11.618-2.108,24.875,2.606,38.178c2.83,7.98,5.664,15.987,4.52,19.062
		c-1.141,3.064-8.402,7.289-15.705,11.536c-12.367,7.193-24.814,14.429-27.277,28.013c-2.425,13.355,6.396,24.456,15.297,35.665
		c5.464,6.875,10.973,13.811,10.973,17.771c0,3.965-5.509,10.9-10.973,17.776c-8.901,11.204-17.722,22.313-15.297,35.665
		c2.462,13.584,14.91,20.82,27.277,28.014c7.303,4.246,14.564,8.471,15.705,11.535c1.144,3.075-1.69,11.082-4.521,19.063
		c-4.713,13.302-9.409,26.559-2.605,38.181c6.826,11.65,20.777,14.002,34.707,16.347c8.211,1.38,16.409,2.761,18.421,5.149
		c2.012,2.384,1.976,10.709,1.935,19.034c-0.063,14.102-0.127,28.203,10.109,36.842c10.292,8.679,24.152,6.253,38.032,3.828
		c8.269-1.449,16.55-2.896,19.238-1.321c2.688,1.576,5.504,9.456,8.323,17.354c4.774,13.353,9.557,26.75,22.342,31.51
		c12.639,4.705,24.979-2.148,37.391-9.047c7.507-4.17,15.051-8.362,18.565-7.721c3.438,0.622,9.048,7.029,14.701,13.497
		c9.562,10.918,19.206,21.94,33.181,21.94c13.98,0,23.626-11.022,33.183-21.94c5.659-6.463,11.267-12.871,14.701-13.493
		c3.519-0.64,11.063,3.552,18.565,7.721c12.413,6.896,24.756,13.753,37.396,9.047c12.779-4.759,17.566-18.157,22.336-31.51
		c2.824-7.903,5.636-15.778,8.324-17.354c2.692-1.575,10.972-0.127,19.237,1.317c13.88,2.431,27.74,4.856,38.032-3.824
		c10.236-8.638,10.172-22.739,10.109-36.842c-0.036-8.324-0.077-16.648,1.935-19.038c2.012-2.384,10.215-3.764,18.421-5.149
		c13.93-2.345,27.882-4.692,34.707-16.347c6.809-11.616,2.112-24.874-2.603-38.177c-2.829-7.979-5.668-15.987-4.523-19.061
		c1.145-3.07,8.407-7.294,15.705-11.536c12.372-7.195,24.815-14.435,27.282-28.019c2.425-13.352-6.4-24.456-15.301-35.659
		C690.376,308.541,684.867,301.606,684.867,297.641z M688.369,346.998c-0.545,2.988-8.355,7.53-16.127,12.05
		c-10.887,6.331-21.723,12.631-25.77,23.508c-4.105,11.022,0.123,22.953,4.337,34.848c2.93,8.257,5.846,16.487,4.51,18.767
		c-1.34,2.29-9.959,3.743-18.562,5.187c-12.421,2.094-24.824,4.179-32.295,13.044c-7.494,8.884-7.44,21.491-7.381,34.094
		c0.04,8.676,0.077,17.351-1.943,19.063c-1.962,1.653-10.514,0.154-19.079-1.345c-12.399-2.172-24.813-4.343-34.93,1.585
		c-10.042,5.887-14.251,17.677-18.48,29.508c-2.97,8.315-5.954,16.667-8.552,17.63c-2.633,0.98-10.332-3.292-18.071-7.593
		c-11.103-6.168-22.271-12.372-33.897-10.261c-11.449,2.075-19.706,11.508-28.031,21.022c-6.081,6.949-12.217,13.962-15.764,13.962
		c-3.553,0-9.688-7.013-15.77-13.962c-8.324-9.514-16.576-18.947-28.035-21.022c-11.627-2.111-22.791,4.093-33.895,10.261
		c-7.738,4.301-15.437,8.574-18.07,7.593c-2.599-0.963-5.582-9.315-8.553-17.63c-4.223-11.831-8.438-23.626-18.484-29.508
		c-10.114-5.928-22.53-3.751-34.93-1.585c-8.56,1.499-17.112,2.992-19.07,1.345c-2.024-1.712-1.988-10.387-1.947-19.063
		c0.059-12.607,0.113-25.21-7.381-34.094c-7.471-8.865-19.873-10.95-32.3-13.044c-8.603-1.444-17.218-2.897-18.558-5.187
		c-1.335-2.28,1.581-10.51,4.51-18.767c4.215-11.895,8.443-23.826,4.338-34.848c-4.051-10.877-14.882-17.177-25.773-23.508
		c-7.767-4.52-15.582-9.062-16.122-12.05c-0.55-3.033,5.036-10.063,10.673-17.157c7.993-10.064,16.055-20.206,16.055-32.2
		c0-11.99-8.062-22.136-16.055-32.196c-5.637-7.097-11.223-14.129-10.673-17.158c0.54-2.988,8.355-7.534,16.122-12.049
		c10.891-6.335,21.722-12.635,25.773-23.512c4.105-11.019-0.123-22.949-4.338-34.845c-2.929-8.256-5.845-16.49-4.51-18.766
		c1.34-2.294,9.96-3.742,18.558-5.191c12.421-2.089,24.829-4.178,32.3-13.038c7.494-8.889,7.44-21.49,7.381-34.095
		c-0.041-8.675-0.077-17.354,1.947-19.062c1.953-1.652,10.51-0.154,19.07,1.34c12.4,2.171,24.816,4.342,34.93-1.585
		c10.046-5.881,14.257-17.676,18.484-29.507c2.971-8.316,5.954-16.663,8.553-17.631c2.633-0.98,10.332,3.293,18.07,7.594
		c11.104,6.173,22.268,12.376,33.895,10.265c11.454-2.08,19.711-11.513,28.035-21.022c6.081-6.948,12.217-13.961,15.77-13.961
		c3.547,0,9.683,7.013,15.764,13.961c8.325,9.51,16.577,18.943,28.031,21.022c11.627,2.111,22.79-4.092,33.897-10.265
		c7.739-4.301,15.438-8.574,18.071-7.594c2.598,0.968,5.582,9.315,8.552,17.631c4.223,11.831,8.438,23.626,18.484,29.507
		c10.113,5.927,22.527,3.756,34.926,1.585c8.565-1.494,17.117-2.992,19.079-1.34c2.02,1.708,1.983,10.387,1.943,19.062
		c-0.059,12.604-0.113,25.206,7.381,34.095c7.471,8.86,19.873,10.949,32.295,13.038c8.603,1.449,17.222,2.897,18.562,5.191
		c1.336,2.276-1.58,10.51-4.51,18.766c-4.214,11.896-8.442,23.826-4.337,34.845c4.047,10.877,14.883,17.177,25.77,23.512
		c7.771,4.515,15.582,9.061,16.127,12.049c0.551,3.029-5.035,10.061-10.673,17.158c-7.993,10.06-16.055,20.206-16.055,32.196
		c0,11.994,8.062,22.136,16.055,32.2C683.334,336.934,688.92,343.965,688.369,346.998z"/>
	<path fill="#FFFFFF" d="M562.407,150.187c-6.422,0-11.627,5.204-11.627,11.626c0,2.86,1.036,5.481,2.753,7.508v0.005l-0.005-0.005
		l0.036,0.041c0.236,0.276,0.486,0.54,0.745,0.79c31.269,33.336,50.416,78.175,50.416,127.488c0,51.475-20.859,98.072-54.59,131.803
		c-33.73,33.735-80.332,54.595-131.809,54.595c-22.034,0-43.177-3.823-62.797-10.846c-0.35-0.145-0.713-0.271-1.079-0.386
		l-0.027-0.014v0.005c-1.067-0.322-2.203-0.5-3.375-0.5c-6.417,0-11.626,5.205-11.626,11.627c0,5.269,3.506,9.714,8.307,11.145
		c22.06,7.891,45.829,12.19,70.599,12.19c57.885,0,110.289-23.467,148.222-61.398c37.937-37.937,61.397-90.338,61.397-148.221
		c0-55.391-21.485-105.758-56.569-143.229C569.242,151.831,566.019,150.187,562.407,150.187z"/>
	<path fill="#FFFFFF" d="M527.32,143.929c6.422,0,11.627-5.209,11.627-11.626c0-6.423-5.206-11.628-11.627-11.628
		c-6.417,0-11.626,5.205-11.626,11.628C515.694,138.72,520.903,143.929,527.32,143.929z"/>
	<path fill="#FFFFFF" d="M481.686,122.287h0.004c1.399,0.595,2.936,0.922,4.551,0.922c6.422,0,11.627-5.204,11.627-11.626
		c-0.001-5.259-3.492-9.7-8.285-11.136c-22.244-8.038-46.232-12.426-71.254-12.426c-57.883,0-110.283,23.462-148.22,61.397
		c-37.932,37.933-61.397,90.338-61.397,148.222c0,55.271,21.396,105.543,56.348,142.993c2.135,2.553,5.341,4.179,8.929,4.179
		c6.423,0,11.628-5.205,11.628-11.627c0-2.854-1.026-5.464-2.734-7.484v-0.01l-0.045-0.05c-0.229-0.269-0.468-0.522-0.718-0.763
		c-31.129-33.313-50.186-78.049-50.186-127.238c0-51.476,20.864-98.077,54.595-131.804c33.73-33.734,80.332-54.595,131.802-54.595
		C440.574,111.242,461.906,115.138,481.686,122.287z"/>
	<path fill="#FFFFFF" d="M309.34,451.351c-6.417,0-11.627,5.205-11.627,11.627s5.21,11.627,11.627,11.627
		c6.422,0,11.627-5.205,11.627-11.627S315.762,451.351,309.34,451.351z"/>
	<path fill="#FFFFFF" d="M384.776,265.78c8.733-8.733,14.138-20.806,14.138-34.13c0-13.33-5.403-25.397-14.138-34.136
		c-8.738-8.738-20.806-14.139-34.135-14.139c-13.33,0-25.396,5.4-34.135,14.139c-8.734,8.737-14.139,20.806-14.139,34.136
		c0,13.324,5.403,25.396,14.139,34.13c8.737,8.738,20.805,14.143,34.135,14.143C363.97,279.922,376.037,274.519,384.776,265.78z
		 M325.589,231.649c0-6.922,2.802-13.186,7.335-17.718c4.532-4.532,10.8-7.34,17.717-7.34c6.921,0,13.186,2.808,17.717,7.34
		c4.532,4.533,7.335,10.796,7.335,17.718c0,6.916-2.803,13.184-7.335,17.717c-4.531,4.532-10.796,7.334-17.717,7.334
		c-6.917,0-13.185-2.807-17.717-7.334C328.391,244.832,325.589,238.565,325.589,231.649z"/>
	<path fill="#FFFFFF" d="M344.292,409.963c5.337,3.506,12.503,2.025,16.01-3.313l135.381-205.317
		c3.506-5.337,2.025-12.504-3.311-16.01c-5.339-3.506-12.506-2.025-16.011,3.311L340.981,393.953
		C337.475,399.289,338.956,406.455,344.292,409.963z"/>
	<path fill="#FFFFFF" d="M451.887,329.502c-8.733,8.738-14.138,20.811-14.138,34.137c0,13.33,5.403,25.396,14.138,34.135
		c8.738,8.734,20.805,14.139,34.135,14.139s25.396-5.404,34.13-14.139c8.738-8.738,14.145-20.805,14.145-34.135
		s-5.405-25.396-14.145-34.137c-8.733-8.732-20.8-14.137-34.13-14.137S460.62,320.769,451.887,329.502z M511.073,363.638
		c0,6.922-2.803,13.184-7.34,17.717c-4.527,4.533-10.795,7.334-17.712,7.334c-6.921,0-13.185-2.801-17.717-7.334
		s-7.339-10.795-7.339-17.717c0-6.918,2.807-13.186,7.339-17.717c4.532-4.533,10.796-7.336,17.717-7.336
		c6.917,0,13.185,2.809,17.712,7.336C508.271,350.457,511.073,356.72,511.073,363.638z"/>
</g>
</svg>
