<svg height="512" viewBox="0 0 64 64" width="512" xmlns="http://www.w3.org/2000/svg"><path d="M32 8.496a16.501 16.501 0 1016.5 16.501A16.52 16.52 0 0032 8.497zm6.15 15.834l-2.481 2.419.586 3.414a.819.819 0 01-1.188.863L32 29.414l-3.066 1.612a.819.819 0 01-1.188-.863l.586-3.414-2.48-2.419a.819.819 0 01.453-1.396l3.428-.498 1.533-3.107a.819.819 0 011.469 0l1.533 3.107 3.428.498a.819.819 0 01.454 1.396z"/><path d="M58.33 54.878l-7.08-13.692a9.47 9.47 0 002.77-9.033 9.509 9.509 0 000-14.311 9.508 9.508 0 00-8.41-11.577A9.506 9.506 0 0032 1.842a9.506 9.506 0 00-13.609 4.423 9.507 9.507 0 00-8.41 11.577 9.51 9.51 0 000 14.311 9.469 9.469 0 002.77 9.033L5.67 54.878a1.501 1.501 0 001.46 2.184l7.3-.62 3.714 6.318a1.5 1.5 0 002.625-.07l6.836-13.22a9.502 9.502 0 004.396-1.318 9.492 9.492 0 004.39 1.31l6.842 13.228a1.5 1.5 0 002.625.07l3.712-6.318 7.302.62a1.5 1.5 0 001.458-2.184zm-38.977 4.02l-2.816-4.79a1.5 1.5 0 00-1.42-.735l-5.534.47 5.671-10.965a9.482 9.482 0 003.138.852 9.455 9.455 0 006.032 5.36zm11.735-13.746a6.506 6.506 0 01-10.194-3.313 1.455 1.455 0 00-1.477-1.072 6.507 6.507 0 01-6.3-8.673 1.5 1.5 0 00-.564-1.736 6.508 6.508 0 010-10.721 1.5 1.5 0 00.564-1.736 6.507 6.507 0 016.125-8.675 1.524 1.524 0 001.652-1.07 6.506 6.506 0 0110.194-3.313 1.501 1.501 0 001.825 0 6.507 6.507 0 0110.195 3.312 1.472 1.472 0 001.475 1.073 6.508 6.508 0 016.302 8.673 1.499 1.499 0 00.563 1.736 6.508 6.508 0 010 10.721 1.499 1.499 0 00-.563 1.736 6.424 6.424 0 01-.872 5.993 6.509 6.509 0 01-5.43 2.68 1.46 1.46 0 00-1.475 1.072 6.507 6.507 0 01-10.195 3.313 1.5 1.5 0 00-1.825 0zm17.795 8.221a1.47 1.47 0 00-1.42.735l-2.814 4.79-5.07-9.804a9.474 9.474 0 006.03-5.364 9.491 9.491 0 003.138-.853l5.67 10.966z"/></svg>