<svg xmlns="http://www.w3.org/2000/svg" width="27.64" height="25.07" fill="#fff"><path d="M12.92 12.02c-.46-.26-1.03-.14-1.38.26-.48.55-.48 1.65-.02 2.22.34.42.93.56 1.38.3.53-.3.71-.8.72-1.39-.01-.57-.16-1.08-.7-1.39zm0 0c-.46-.26-1.03-.14-1.38.26-.48.55-.48 1.65-.02 2.22.34.42.93.56 1.38.3.53-.3.71-.8.72-1.39-.01-.57-.16-1.08-.7-1.39zM13.81 0C6.19 0 0 5.61 0 12.53c0 3.23 1.37 6.16 3.58 8.39h-.02s.03.03.08.06c.07.07.13.13.2.19.21.26.4.72.02 1.38-.5.86-1.49 1.67-2.23 2.06-.15.08-.13.31.03.34 1.18.23 2.56.13 3.83-.24 1.47-.43 2.21-.9 3.74-.36v-.01c1.44.46 2.98.73 4.59.73 7.64 0 13.82-5.61 13.82-12.53S21.45 0 13.81 0zM8.55 16.42c-1.44.02-2.88.01-4.32.01-.43 0-.84-.08-1.07-.5-.24-.46-.08-.88.2-1.27 1.05-1.41 2.11-2.82 3.16-4.23.1-.13.25-.23.26-.5h-2.3c-.21 0-.42.02-.62-.03-.43-.06-.68-.33-.68-.77 0-.46.25-.79.71-.79 1.53-.03 3.07-.04 4.6 0 .66.02.95.62.68 1.24-.18.42-.46.78-.72 1.14-.98 1.3-1.94 2.59-3 4 1.08 0 2.03-.01 2.98 0 .45.01.88.08.99.63.12.68-.18 1.07-.87 1.07zm6.86-1.05c0 .44-.07.84-.51 1.05-.43.21-.81.1-1.11-.27-.08-.1-.14-.13-.28-.05-1.8.96-3.38.35-3.95-1.53-.38-1.23-.22-2.38.58-3.43.79-1.03 2.45-1.39 3.51-.35.3-.36.63-.67 1.16-.46.53.23.59.68.59 1.18.01 1.29.01 2.58.01 3.86zm2.53.14c-.01.64-.33 1.02-.88 1.01-.54 0-.87-.38-.87-1.03-.01-2.28-.01-4.54 0-6.81 0-.68.31-1.03.86-1.04.57-.02.88.36.89 1.05v6.82zm5.1.75c-1 .55-2.04.53-3.03-.07-1.45-.87-1.9-3.09-.96-4.63.85-1.38 2.68-1.83 4.07-.98 1.05.65 1.45 1.65 1.47 2.85-.03 1.21-.45 2.23-1.55 2.83zm-.84-4.19c-.48-.33-1.1-.23-1.48.23-.48.57-.49 1.63-.01 2.21.37.43 1.03.55 1.48.23.46-.32.61-.8.62-1.34-.01-.53-.15-1-.61-1.33zm-9.28-.05c-.46-.26-1.03-.14-1.38.26-.48.55-.48 1.65-.02 2.22.34.42.93.56 1.38.3.53-.3.71-.8.72-1.39-.01-.57-.16-1.08-.7-1.39zm0 0c-.46-.26-1.03-.14-1.38.26-.48.55-.48 1.65-.02 2.22.34.42.93.56 1.38.3.53-.3.71-.8.72-1.39-.01-.57-.16-1.08-.7-1.39zm0 0c-.46-.26-1.03-.14-1.38.26-.48.55-.48 1.65-.02 2.22.34.42.93.56 1.38.3.53-.3.71-.8.72-1.39-.01-.57-.16-1.08-.7-1.39z"/></svg>